{"title":"Harper Valley P.T.A.","uid":7343596,"size":611969024,"categoryP":"video","categoryS":"movies","magnet":"?xt=urn:btih:c33a5e9f9b8790e38c72d6fa8fdf4c4b1a5d799d&amp;dn=Harper+Valley+P.T.A.&amp;tr=udp%3A%2F%2Ftracker.openbittorrent.com%3A80&amp;tr=udp%3A%2F%2Fopen.demonii.com%3A1337&amp;tr=udp%3A%2F%2Ftracker.coppersurfer.tk%3A6969&amp;tr=udp%3A%2F%2Fexodus.desync.com%3A6969","seeders":0,"leechers":1,"uploader":"movieboy_5280","files":-1,"time":1339338687,"description":"Stella Johnson is a single mother living in the town of Harper Valley. Now most of people, particularly on PTA board think that she is a little too liberal for them. So they are making things tough for her and her daughter. She then decides to get back at them by pulling all sorts of pranks on them. She also decides to run for the position of PTA President, which infuriates them.\n\nStars: Barbara Eden, Ronny Cox and Nanette Fabray\n\nWriters: George Edwards (screenplay), George Edwards (story)\n\nDirector: Richard C. Bennett\n\n\nFile Details:\n\nGeneral\n\nComplete name                            : Harper Valley P.T.A. (1978).avi\nFormat                                   : AVI\nFormat/Info                              : Audio Video Interleave\nFile size                                : 584 MiB\nDuration                                 : 1h 41mn\nOverall bit rate                         : 802 Kbps\n\nVideo\n\nID                                       : 0\nFormat                                   : MPEG-4 Visual\nFormat profile                           : Simple@L3\nFormat settings, BVOP                    : No\nFormat settings, QPel                    : No\nFormat settings, GMC                     : No warppoints\nFormat settings, Matrix                  : Default (H.263)\nCodec ID                                 : XVID\nCodec ID/Hint                            : XviD\nDuration                                 : 1h 41mn\nBit rate                                 : 661 Kbps\nWidth                                    : 672 pixels\nHeight                                   : 368 pixels\nDisplay aspect ratio                     : 16:9\nFrame rate                               : 29.970 fps\nOriginal frame rate                      : 29.000 fps\nColor space                              : YUV\nChroma subsampling                       : 4:2:0\nBit depth                                : 8 bits\nScan type                                : Progressive\nCompression mode                         : Lossy\nBits/(Pixel*Frame)                       : 0.089\nStream size                              : 481 MiB (82%)\nWriting library                          : XviD 1.2.1 (UTC 2008-12-04)\n\nAudio\n\nID                                       : 1\nFormat                                   : MPEG Audio\nFormat version                           : Version 1\nFormat profile                           : Layer 3\nMode                                     : Joint stereo\nMode extension                           : MS Stereo\nCodec ID                                 : 55\nCodec ID/Hint                            : MP3\nDuration                                 : 1h 41mn\nBit rate mode                            : Constant\nBit rate                                 : 128 Kbps\nChannel(s)                               : 2 channels\nSampling rate                            : 44.1 KHz\nCompression mode                         : Lossy\nStream size                              : 93.1 MiB (16%)\nAlignment                                : Aligned on interleaves\nInterleave, duration                     : 26 ms (0.78 video frame)\nInterleave, preload duration             : 52 ms\nWriting library                          : LAME3.98.2","torrent":{"xt":"urn:btih:c33a5e9f9b8790e38c72d6fa8fdf4c4b1a5d799d","amp;dn":"Harper+Valley+P.T.A.","amp;tr":["udp%3A%2F%2Ftracker.openbittorrent.com%3A80","udp%3A%2F%2Fopen.demonii.com%3A1337","udp%3A%2F%2Ftracker.coppersurfer.tk%3A6969","udp%3A%2F%2Fexodus.desync.com%3A6969"],"infoHash":"c33a5e9f9b8790e38c72d6fa8fdf4c4b1a5d799d","infoHashBuffer":{"type":"Buffer","data":[195,58,94,159,155,135,144,227,140,114,214,250,143,223,76,75,26,93,121,157]},"announce":[],"urlList":[]}}